# xmcd
#
# Track frame offsets: 
#        200
#        19737
#        39077
#        56480
#        74050
#        89680
#        107570
#        124257
#        147787
#        161757
#        180050
#        193770
#        211335
#
# Disc length: 3059 seconds
#
# Revision: 2
# Processed by: cddbd v1.4PL0 Copyright (c) Steve Scherf et al.
# Submitted via: ExactAudioCopy v0.90b4
#
DISCID=b30bf10d
DTITLE=Marva Wright - Marvalous
DYEAR=1900
DGENRE=Blues
TTITLE0=Members Only
TTITLE1=I Had A Talk With My Man
TTITLE2=Shake A Hand
TTITLE3=Driving Wheel
TTITLE4=Further On Up The Road
TTITLE5=Mr. Big Stuff
TTITLE6=Built For Comfort
TTITLE7=Wang Dang Doodle
TTITLE8=You Can Have My Husband
TTITLE9=Down Home Blues
TTITLE10=Mama, He Treats Your Daughter Mean
TTITLE11=You Send Me
TTITLE12=It's Raining
EXTD=
EXTT0=
EXTT1=
EXTT2=
EXTT3=
EXTT4=
EXTT5=
EXTT6=
EXTT7=
EXTT8=
EXTT9=
EXTT10=
EXTT11=
EXTT12=
PLAYORDER=
